# Blender v2.79 (sub 0) OBJ File: ''
# www.blender.org
v 3.001924 1.283826 -4.627467
v 3.001924 1.483826 -4.627467
v 3.011678 1.283826 -4.626506
v 3.011678 1.483826 -4.626506
v 3.021058 1.283826 -4.623661
v 3.021058 1.483826 -4.623661
v 3.029703 1.283826 -4.619040
v 3.029703 1.483826 -4.619040
v 3.037279 1.283826 -4.612823
v 3.037279 1.483826 -4.612823
v 3.043498 1.283826 -4.605246
v 3.043498 1.483826 -4.605246
v 3.048118 1.283826 -4.596601
v 3.048118 1.483826 -4.596601
v 3.050963 1.283826 -4.587222
v 3.050963 1.483826 -4.587222
v 3.051924 1.283826 -4.577467
v 3.051924 1.483826 -4.577467
v 3.050963 1.283826 -4.567712
v 3.050963 1.483826 -4.567712
v 3.048118 1.283826 -4.558333
v 3.048118 1.483826 -4.558333
v 3.043498 1.283826 -4.549688
v 3.043498 1.483826 -4.549688
v 3.037279 1.283826 -4.542111
v 3.037279 1.483826 -4.542111
v 3.029703 1.283826 -4.535893
v 3.029703 1.483826 -4.535893
v 3.021058 1.283826 -4.531273
v 3.021058 1.483826 -4.531273
v 3.011678 1.283826 -4.528428
v 3.011678 1.483826 -4.528428
v 3.001924 1.283826 -4.527467
v 3.001924 1.483826 -4.527467
v 2.992170 1.283826 -4.528428
v 2.992170 1.483826 -4.528428
v 2.982790 1.283826 -4.531273
v 2.982790 1.483826 -4.531273
v 2.974145 1.283826 -4.535893
v 2.974145 1.483826 -4.535893
v 2.966569 1.283826 -4.542112
v 2.966569 1.483826 -4.542112
v 2.960351 1.283826 -4.549688
v 2.960351 1.483826 -4.549688
v 2.955730 1.283826 -4.558333
v 2.955730 1.483826 -4.558333
v 2.952885 1.283826 -4.567712
v 2.952885 1.483826 -4.567712
v 2.951924 1.283826 -4.577467
v 2.951924 1.483826 -4.577467
v 2.952885 1.283826 -4.587222
v 2.952885 1.483826 -4.587222
v 2.955730 1.283826 -4.596601
v 2.955730 1.483826 -4.596601
v 2.960351 1.283826 -4.605246
v 2.960351 1.483826 -4.605246
v 2.966569 1.283826 -4.612823
v 2.966569 1.483826 -4.612823
v 2.974146 1.283826 -4.619040
v 2.974146 1.483826 -4.619040
v 2.982790 1.283826 -4.623661
v 2.982790 1.483826 -4.623661
v 2.992170 1.283826 -4.626506
v 2.992170 1.483826 -4.626506
vn 0.0981 0.0000 -0.9952
vn 0.2902 0.0000 -0.9570
vn 0.4714 0.0000 -0.8819
vn 0.6344 0.0000 -0.7730
vn 0.7730 0.0000 -0.6344
vn 0.8819 0.0000 -0.4714
vn 0.9569 0.0000 -0.2903
vn 0.9952 0.0000 -0.0980
vn 0.9952 0.0000 0.0980
vn 0.9569 0.0000 0.2903
vn 0.8819 0.0000 0.4714
vn 0.7730 0.0000 0.6344
vn 0.6344 0.0000 0.7730
vn 0.4714 0.0000 0.8819
vn 0.2903 0.0000 0.9569
vn 0.0980 0.0000 0.9952
vn -0.0981 0.0000 0.9952
vn -0.2902 0.0000 0.9570
vn -0.4714 0.0000 0.8819
vn -0.6344 0.0000 0.7730
vn -0.7730 0.0000 0.6344
vn -0.8819 0.0000 0.4714
vn -0.9569 0.0000 0.2903
vn -0.9952 0.0000 0.0980
vn -0.9952 0.0000 -0.0980
vn -0.9569 0.0000 -0.2903
vn -0.8819 0.0000 -0.4714
vn -0.7730 0.0000 -0.6344
vn -0.6344 0.0000 -0.7730
vn -0.4714 0.0000 -0.8819
vn 0.0000 1.0000 0.0000
vn -0.2903 0.0000 -0.9569
vn -0.0980 0.0000 -0.9952
vn 0.0000 -1.0000 -0.0000
vn 0.0980 0.0000 -0.9952
vn 0.2903 0.0000 -0.9569
vn 0.2903 0.0000 0.9570
vn 0.0981 0.0000 0.9952
vn -0.0980 0.0000 0.9952
vn -0.2903 0.0000 0.9569
vn -0.6345 0.0000 0.7730
vn -0.7730 0.0000 0.6345
vn 0.0000 1.0000 0.0001
vn 0.0000 1.0000 -0.0001
vn -0.2903 0.0000 -0.9570
vn -0.0981 0.0000 -0.9952
vn 0.0000 -1.0000 -0.0001
vn 0.0000 -1.0000 0.0001
s off
f 2//1 3//1 1//1
f 4//2 5//2 3//2
f 6//3 7//3 5//3
f 8//4 9//4 7//4
f 10//5 11//5 9//5
f 12//6 13//6 11//6
f 14//7 15//7 13//7
f 16//8 17//8 15//8
f 18//9 19//9 17//9
f 20//10 21//10 19//10
f 22//11 23//11 21//11
f 24//12 25//12 23//12
f 26//13 27//13 25//13
f 28//14 29//14 27//14
f 30//15 31//15 29//15
f 32//16 33//16 31//16
f 34//17 35//17 33//17
f 36//18 37//18 35//18
f 38//19 39//19 37//19
f 40//20 41//20 39//20
f 42//21 43//21 41//21
f 44//22 45//22 43//22
f 46//23 47//23 45//23
f 48//24 49//24 47//24
f 50//25 51//25 49//25
f 52//26 53//26 51//26
f 54//27 55//27 53//27
f 56//28 57//28 55//28
f 58//29 59//29 57//29
f 60//30 61//30 59//30
f 54//31 38//31 22//31
f 62//32 63//32 61//32
f 64//33 1//33 63//33
f 15//34 31//34 47//34
f 2//35 4//35 3//35
f 4//36 6//36 5//36
f 6//3 8//3 7//3
f 8//4 10//4 9//4
f 10//5 12//5 11//5
f 12//6 14//6 13//6
f 14//7 16//7 15//7
f 16//8 18//8 17//8
f 18//9 20//9 19//9
f 20//10 22//10 21//10
f 22//11 24//11 23//11
f 24//12 26//12 25//12
f 26//13 28//13 27//13
f 28//14 30//14 29//14
f 30//37 32//37 31//37
f 32//38 34//38 33//38
f 34//39 36//39 35//39
f 36//40 38//40 37//40
f 38//19 40//19 39//19
f 40//41 42//41 41//41
f 42//42 44//42 43//42
f 44//22 46//22 45//22
f 46//23 48//23 47//23
f 48//24 50//24 49//24
f 50//25 52//25 51//25
f 52//26 54//26 53//26
f 54//27 56//27 55//27
f 56//28 58//28 57//28
f 58//29 60//29 59//29
f 60//30 62//30 61//30
f 6//43 4//43 2//43
f 2//31 64//31 6//31
f 64//31 62//31 6//31
f 62//43 60//43 58//43
f 58//31 56//31 54//31
f 54//31 52//31 50//31
f 50//31 48//31 54//31
f 48//31 46//31 54//31
f 46//31 44//31 38//31
f 44//43 42//43 38//43
f 42//44 40//44 38//44
f 38//44 36//44 34//44
f 34//44 32//44 30//44
f 30//44 28//44 26//44
f 26//31 24//31 22//31
f 22//31 20//31 18//31
f 18//31 16//31 22//31
f 16//31 14//31 22//31
f 14//31 12//31 10//31
f 10//43 8//43 6//43
f 62//31 58//31 6//31
f 58//31 54//31 6//31
f 38//31 34//31 22//31
f 34//31 30//31 22//31
f 30//31 26//31 22//31
f 14//31 10//31 22//31
f 10//31 6//31 22//31
f 54//31 46//31 38//31
f 6//31 54//31 22//31
f 62//45 64//45 63//45
f 64//46 2//46 1//46
f 63//34 1//34 3//34
f 3//47 5//47 7//47
f 7//34 9//34 11//34
f 11//47 13//47 7//47
f 13//34 15//34 7//34
f 15//34 17//34 19//34
f 19//34 21//34 15//34
f 21//34 23//34 15//34
f 23//47 25//47 31//47
f 25//48 27//48 31//48
f 27//48 29//48 31//48
f 31//34 33//34 35//34
f 35//48 37//48 39//48
f 39//34 41//34 43//34
f 43//34 45//34 47//34
f 47//34 49//34 51//34
f 51//34 53//34 55//34
f 55//48 57//48 63//48
f 57//47 59//47 63//47
f 59//34 61//34 63//34
f 63//34 3//34 7//34
f 31//34 35//34 47//34
f 35//34 39//34 47//34
f 39//34 43//34 47//34
f 47//34 51//34 63//34
f 51//34 55//34 63//34
f 63//34 7//34 15//34
f 15//34 23//34 31//34
f 63//34 15//34 47//34
