# Blender v2.79 (sub 0) OBJ File: ''
# www.blender.org
v 3.001924 1.632706 -4.827467
v 3.050697 1.632706 -4.822663
v 3.097595 1.632706 -4.808437
v 3.140817 1.632706 -4.785335
v 3.178701 1.632706 -4.754244
v 3.209791 1.632706 -4.716360
v 3.232894 1.632706 -4.673138
v 3.247120 1.632706 -4.626240
v 3.251924 1.632706 -4.577467
v 3.247120 1.632706 -4.528695
v 3.232894 1.632706 -4.481796
v 3.209791 1.632706 -4.438574
v 3.178701 1.632706 -4.400690
v 3.140817 1.632706 -4.369599
v 3.097595 1.632706 -4.346497
v 3.050697 1.632706 -4.332271
v 3.001924 1.632706 -4.327467
v 2.953151 1.632706 -4.332271
v 2.906253 1.632706 -4.346497
v 2.863031 1.632706 -4.369600
v 2.825147 1.632706 -4.400691
v 2.794056 1.632706 -4.438575
v 2.770954 1.632706 -4.481796
v 3.001924 2.032706 -4.577467
v 2.756728 1.632706 -4.528695
v 2.751924 1.632706 -4.577467
v 2.756728 1.632706 -4.626240
v 2.770954 1.632706 -4.673138
v 2.794057 1.632706 -4.716360
v 2.825148 1.632706 -4.754244
v 2.863032 1.632706 -4.785335
v 2.906254 1.632706 -4.808437
v 2.953152 1.632706 -4.822663
v 3.001924 1.469668 -4.877467
v 3.060451 1.469668 -4.871702
v 3.116729 1.469668 -4.854630
v 3.168595 1.469668 -4.826907
v 3.214056 1.469668 -4.789598
v 3.251365 1.469668 -4.744138
v 3.279088 1.469668 -4.692272
v 3.296159 1.469668 -4.635993
v 3.301924 1.469668 -4.577466
v 3.296160 1.469668 -4.518939
v 3.279088 1.469668 -4.462662
v 3.251365 1.469668 -4.410795
v 3.214056 1.469668 -4.365335
v 3.168595 1.469668 -4.328026
v 3.116729 1.469668 -4.300303
v 3.060451 1.469668 -4.283231
v 3.001924 1.469668 -4.277466
v 2.943397 1.469668 -4.283231
v 2.887119 1.469668 -4.300303
v 2.835253 1.469668 -4.328026
v 2.789792 1.469668 -4.365335
v 2.752483 1.469668 -4.410796
v 2.724760 1.469668 -4.462662
v 3.001924 1.869668 -4.577466
v 2.707688 1.469668 -4.518939
v 2.701924 1.469668 -4.577467
v 2.707688 1.469668 -4.635994
v 2.724760 1.469668 -4.692272
v 2.752483 1.469668 -4.744138
v 2.789792 1.469668 -4.789599
v 2.835253 1.469668 -4.826908
v 2.887119 1.469668 -4.854630
v 2.943397 1.469668 -4.871702
vn 0.0832 0.5282 -0.8451
vn 0.2465 0.5282 -0.8126
vn 0.4003 0.5282 -0.7489
vn 0.5387 0.5282 -0.6564
vn 0.6564 0.5282 -0.5387
vn 0.7489 0.5282 -0.4003
vn 0.8126 0.5282 -0.2465
vn 0.8451 0.5282 -0.0832
vn 0.8451 0.5282 0.0832
vn 0.8126 0.5282 0.2465
vn 0.7489 0.5282 0.4003
vn 0.6564 0.5282 0.5387
vn 0.5387 0.5282 0.6564
vn 0.4003 0.5282 0.7489
vn 0.2465 0.5282 0.8126
vn 0.0832 0.5282 0.8451
vn -0.0832 0.5282 0.8451
vn -0.2465 0.5282 0.8126
vn -0.4003 0.5282 0.7489
vn -0.5387 0.5282 0.6564
vn -0.6564 0.5282 0.5387
vn -0.7489 0.5282 0.4003
vn -0.8126 0.5282 0.2465
vn -0.8451 0.5282 0.0832
vn -0.8451 0.5282 -0.0832
vn -0.8126 0.5282 -0.2465
vn -0.7489 0.5282 -0.4003
vn -0.6564 0.5282 -0.5387
vn -0.5387 0.5282 -0.6564
vn -0.4003 0.5282 -0.7489
vn -0.2465 0.5282 -0.8126
vn -0.0832 0.5282 -0.8451
vn 0.0000 -1.0000 0.0000
vn 0.0785 0.5981 -0.7975
vn 0.2326 0.5981 -0.7669
vn 0.3778 0.5981 -0.7068
vn 0.5084 0.5981 -0.6195
vn 0.6195 0.5981 -0.5084
vn 0.7068 0.5982 -0.3778
vn 0.7669 0.5981 -0.2326
vn 0.7975 0.5981 -0.0786
vn 0.7975 0.5981 0.0785
vn 0.7669 0.5981 0.2326
vn 0.7068 0.5981 0.3778
vn 0.6195 0.5981 0.5084
vn 0.5084 0.5981 0.6195
vn 0.3778 0.5981 0.7068
vn 0.2326 0.5981 0.7669
vn 0.0785 0.5981 0.7975
vn -0.0785 0.5981 0.7975
vn -0.2326 0.5981 0.7669
vn -0.3778 0.5981 0.7068
vn -0.5084 0.5981 0.6195
vn -0.6195 0.5981 0.5084
vn -0.7068 0.5981 0.3778
vn -0.7669 0.5981 0.2326
vn -0.7975 0.5981 0.0785
vn -0.7975 0.5981 -0.0786
vn -0.7669 0.5981 -0.2326
vn -0.7068 0.5981 -0.3778
vn -0.6195 0.5981 -0.5084
vn -0.5084 0.5981 -0.6195
vn -0.3778 0.5981 -0.7068
vn -0.2326 0.5981 -0.7669
vn -0.0785 0.5981 -0.7975
s off
f 1//1 24//1 2//1
f 2//2 24//2 3//2
f 3//3 24//3 4//3
f 4//4 24//4 5//4
f 5//5 24//5 6//5
f 6//6 24//6 7//6
f 7//7 24//7 8//7
f 8//8 24//8 9//8
f 9//9 24//9 10//9
f 10//10 24//10 11//10
f 11//11 24//11 12//11
f 12//12 24//12 13//12
f 13//13 24//13 14//13
f 14//14 24//14 15//14
f 15//15 24//15 16//15
f 16//16 24//16 17//16
f 17//17 24//17 18//17
f 18//18 24//18 19//18
f 19//19 24//19 20//19
f 20//20 24//20 21//20
f 21//21 24//21 22//21
f 22//22 24//22 23//22
f 23//23 24//23 25//23
f 25//24 24//24 26//24
f 26//25 24//25 27//25
f 27//26 24//26 28//26
f 28//27 24//27 29//27
f 29//28 24//28 30//28
f 30//29 24//29 31//29
f 31//30 24//30 32//30
f 32//31 24//31 33//31
f 33//32 24//32 1//32
f 8//33 16//33 25//33
f 34//34 57//34 35//34
f 35//35 57//35 36//35
f 36//36 57//36 37//36
f 37//37 57//37 38//37
f 38//38 57//38 39//38
f 39//39 57//39 40//39
f 40//40 57//40 41//40
f 41//41 57//41 42//41
f 42//42 57//42 43//42
f 43//43 57//43 44//43
f 44//44 57//44 45//44
f 45//45 57//45 46//45
f 46//46 57//46 47//46
f 47//47 57//47 48//47
f 48//48 57//48 49//48
f 49//49 57//49 50//49
f 50//50 57//50 51//50
f 51//51 57//51 52//51
f 52//52 57//52 53//52
f 53//53 57//53 54//53
f 54//54 57//54 55//54
f 55//55 57//55 56//55
f 56//56 57//56 58//56
f 58//57 57//57 59//57
f 59//58 57//58 60//58
f 60//59 57//59 61//59
f 61//60 57//60 62//60
f 62//61 57//61 63//61
f 63//62 57//62 64//62
f 64//63 57//63 65//63
f 65//64 57//64 66//64
f 66//65 57//65 34//65
f 66//33 41//33 49//33
f 33//33 1//33 2//33
f 2//33 3//33 4//33
f 4//33 5//33 6//33
f 6//33 7//33 4//33
f 7//33 8//33 4//33
f 8//33 9//33 10//33
f 10//33 11//33 8//33
f 11//33 12//33 8//33
f 12//33 13//33 16//33
f 13//33 14//33 16//33
f 14//33 15//33 16//33
f 16//33 17//33 18//33
f 18//33 19//33 20//33
f 20//33 21//33 22//33
f 22//33 23//33 25//33
f 25//33 26//33 27//33
f 27//33 28//33 29//33
f 29//33 30//33 33//33
f 30//33 31//33 33//33
f 31//33 32//33 33//33
f 33//33 2//33 4//33
f 16//33 18//33 25//33
f 18//33 20//33 25//33
f 20//33 22//33 25//33
f 25//33 27//33 33//33
f 27//33 29//33 33//33
f 33//33 4//33 8//33
f 8//33 12//33 16//33
f 33//33 8//33 25//33
f 66//33 34//33 35//33
f 35//33 36//33 66//33
f 36//33 37//33 66//33
f 37//33 38//33 39//33
f 39//33 40//33 37//33
f 40//33 41//33 37//33
f 41//33 42//33 43//33
f 43//33 44//33 41//33
f 44//33 45//33 41//33
f 45//33 46//33 49//33
f 46//33 47//33 49//33
f 47//33 48//33 49//33
f 49//33 50//33 51//33
f 51//33 52//33 53//33
f 53//33 54//33 55//33
f 55//33 56//33 58//33
f 58//33 59//33 60//33
f 60//33 61//33 62//33
f 62//33 63//33 64//33
f 64//33 65//33 66//33
f 49//33 51//33 58//33
f 51//33 53//33 58//33
f 53//33 55//33 58//33
f 58//33 60//33 62//33
f 62//33 64//33 66//33
f 66//33 37//33 41//33
f 41//33 45//33 49//33
f 58//33 62//33 49//33
f 62//33 66//33 49//33
