# Blender v2.79 (sub 0) OBJ File: ''
# www.blender.org
v -0.522240 4.833249 -4.889970
v -0.522240 4.833249 -4.289970
v -0.122240 4.833249 -4.889970
v -0.122240 4.833249 -4.289970
v -0.522240 4.773249 -4.889970
v -0.522240 4.773249 -4.289970
v -0.122240 4.773249 -4.889970
v -0.122240 4.773249 -4.289970
v -1.124099 4.251891 -4.371948
v -1.124099 4.851891 -4.371948
v -1.124099 4.251891 -4.771948
v -1.124099 4.851891 -4.771948
v -1.064099 4.251891 -4.371948
v -1.064099 4.851891 -4.371948
v -1.064099 4.251891 -4.771948
v -1.064099 4.851891 -4.771948
v -0.999071 4.251891 -4.371948
v -0.999071 4.851891 -4.371948
v -0.999071 4.251891 -4.771948
v -0.999071 4.851891 -4.771948
v -0.939071 4.251891 -4.371948
v -0.939071 4.851891 -4.371948
v -0.939071 4.251891 -4.771948
v -0.939071 4.851891 -4.771948
vn 0.0000 1.0000 0.0000
vn 1.0000 0.0000 0.0000
vn 0.0000 -1.0000 0.0000
vn -1.0000 0.0000 -0.0000
vn 0.0000 0.0000 -1.0000
vn 0.0000 0.0000 1.0000
s off
f 2//1 3//1 1//1
f 4//2 7//2 3//2
f 8//3 5//3 7//3
f 6//4 1//4 5//4
f 7//5 1//5 3//5
f 4//6 6//6 8//6
f 9//4 12//4 11//4
f 12//5 15//5 11//5
f 16//2 13//2 15//2
f 14//6 9//6 13//6
f 15//3 9//3 11//3
f 12//1 14//1 16//1
f 17//4 20//4 19//4
f 20//5 23//5 19//5
f 24//2 21//2 23//2
f 22//6 17//6 21//6
f 23//3 17//3 19//3
f 20//1 22//1 24//1
f 2//1 4//1 3//1
f 4//2 8//2 7//2
f 8//3 6//3 5//3
f 6//4 2//4 1//4
f 7//5 5//5 1//5
f 4//6 2//6 6//6
f 9//4 10//4 12//4
f 12//5 16//5 15//5
f 16//2 14//2 13//2
f 14//6 10//6 9//6
f 15//3 13//3 9//3
f 12//1 10//1 14//1
f 17//4 18//4 20//4
f 20//5 24//5 23//5
f 24//2 22//2 21//2
f 22//6 18//6 17//6
f 23//3 21//3 17//3
f 20//1 18//1 22//1
