# Blender v2.79 (sub 0) OBJ File: 'sofa.blend'
# www.blender.org
v 1.500000 0.200000 2.470000
v 1.500000 0.800000 2.470000
v 1.505853 0.200000 2.470577
v 1.505853 0.800000 2.470577
v 1.511480 0.200000 2.472284
v 1.511480 0.800000 2.472284
v 1.516667 0.200000 2.475056
v 1.516667 0.800000 2.475056
v 1.521213 0.200000 2.478787
v 1.521213 0.800000 2.478787
v 1.524944 0.200000 2.483333
v 1.524944 0.800000 2.483333
v 1.527716 0.200000 2.488519
v 1.527716 0.800000 2.488519
v 1.529424 0.200000 2.494147
v 1.529424 0.800000 2.494147
v 1.530000 0.200000 2.500000
v 1.530000 0.800000 2.500000
v 1.529424 0.200000 2.505853
v 1.529424 0.800000 2.505853
v 1.527716 0.200000 2.511481
v 1.527716 0.800000 2.511481
v 1.524944 0.200000 2.516667
v 1.524944 0.800000 2.516667
v 1.521213 0.200000 2.521213
v 1.521213 0.800000 2.521213
v 1.516667 0.200000 2.524944
v 1.516667 0.800000 2.524944
v 1.511480 0.200000 2.527716
v 1.511480 0.800000 2.527716
v 1.505853 0.200000 2.529423
v 1.505853 0.800000 2.529423
v 1.500000 0.200000 2.530000
v 1.500000 0.800000 2.530000
v 1.494147 0.200000 2.529423
v 1.494147 0.800000 2.529423
v 1.488519 0.200000 2.527716
v 1.488519 0.800000 2.527716
v 1.483333 0.200000 2.524944
v 1.483333 0.800000 2.524944
v 1.478787 0.200000 2.521213
v 1.478787 0.800000 2.521213
v 1.475056 0.200000 2.516667
v 1.475056 0.800000 2.516667
v 1.472284 0.200000 2.511481
v 1.472284 0.800000 2.511481
v 1.470576 0.200000 2.505853
v 1.470576 0.800000 2.505853
v 1.470000 0.200000 2.500000
v 1.470000 0.800000 2.500000
v 1.470576 0.200000 2.494147
v 1.470576 0.800000 2.494147
v 1.472284 0.200000 2.488519
v 1.472284 0.800000 2.488519
v 1.475056 0.200000 2.483333
v 1.475056 0.800000 2.483333
v 1.478787 0.200000 2.478787
v 1.478787 0.800000 2.478787
v 1.483333 0.200000 2.475056
v 1.483333 0.800000 2.475056
v 1.488520 0.200000 2.472284
v 1.488520 0.800000 2.472284
v 1.494147 0.200000 2.470577
v 1.494147 0.800000 2.470577
v 1.000000 0.200000 2.970000
v 1.000000 0.800000 2.970000
v 1.005853 0.200000 2.970577
v 1.005853 0.800000 2.970577
v 1.011480 0.200000 2.972284
v 1.011480 0.800000 2.972284
v 1.016667 0.200000 2.975056
v 1.016667 0.800000 2.975056
v 1.021213 0.200000 2.978787
v 1.021213 0.800000 2.978787
v 1.024944 0.200000 2.983333
v 1.024944 0.800000 2.983333
v 1.027716 0.200000 2.988520
v 1.027716 0.800000 2.988520
v 1.029423 0.200000 2.994147
v 1.029423 0.800000 2.994147
v 1.030000 0.200000 3.000000
v 1.030000 0.800000 3.000000
v 1.029423 0.200000 3.005853
v 1.029423 0.800000 3.005853
v 1.027716 0.200000 3.011481
v 1.027716 0.800000 3.011481
v 1.024944 0.200000 3.016667
v 1.024944 0.800000 3.016667
v 1.021213 0.200000 3.021213
v 1.021213 0.800000 3.021213
v 1.016667 0.200000 3.024944
v 1.016667 0.800000 3.024944
v 1.011480 0.200000 3.027717
v 1.011480 0.800000 3.027717
v 1.005853 0.200000 3.029424
v 1.005853 0.800000 3.029424
v 1.000000 0.200000 3.030000
v 1.000000 0.800000 3.030000
v 0.994147 0.200000 3.029424
v 0.994147 0.800000 3.029424
v 0.988519 0.200000 3.027717
v 0.988519 0.800000 3.027717
v 0.983333 0.200000 3.024944
v 0.983333 0.800000 3.024944
v 0.978787 0.200000 3.021213
v 0.978787 0.800000 3.021213
v 0.975056 0.200000 3.016667
v 0.975056 0.800000 3.016667
v 0.972283 0.200000 3.011481
v 0.972283 0.800000 3.011481
v 0.970576 0.200000 3.005853
v 0.970576 0.800000 3.005853
v 0.970000 0.200000 3.000000
v 0.970000 0.800000 3.000000
v 0.970576 0.200000 2.994147
v 0.970576 0.800000 2.994147
v 0.972283 0.200000 2.988520
v 0.972283 0.800000 2.988520
v 0.975056 0.200000 2.983333
v 0.975056 0.800000 2.983333
v 0.978787 0.200000 2.978787
v 0.978787 0.800000 2.978787
v 0.983333 0.200000 2.975056
v 0.983333 0.800000 2.975056
v 0.988519 0.200000 2.972284
v 0.988519 0.800000 2.972284
v 0.994147 0.200000 2.970577
v 0.994147 0.800000 2.970577
v 1.500000 0.200000 2.970000
v 1.500000 0.800000 2.970000
v 1.505853 0.200000 2.970577
v 1.505853 0.800000 2.970577
v 1.511480 0.200000 2.972284
v 1.511480 0.800000 2.972284
v 1.516667 0.200000 2.975056
v 1.516667 0.800000 2.975056
v 1.521213 0.200000 2.978787
v 1.521213 0.800000 2.978787
v 1.524944 0.200000 2.983333
v 1.524944 0.800000 2.983333
v 1.527716 0.200000 2.988520
v 1.527716 0.800000 2.988520
v 1.529424 0.200000 2.994147
v 1.529424 0.800000 2.994147
v 1.530000 0.200000 3.000000
v 1.530000 0.800000 3.000000
v 1.529424 0.200000 3.005853
v 1.529424 0.800000 3.005853
v 1.527716 0.200000 3.011481
v 1.527716 0.800000 3.011481
v 1.524944 0.200000 3.016667
v 1.524944 0.800000 3.016667
v 1.521213 0.200000 3.021213
v 1.521213 0.800000 3.021213
v 1.516667 0.200000 3.024944
v 1.516667 0.800000 3.024944
v 1.511480 0.200000 3.027717
v 1.511480 0.800000 3.027717
v 1.505853 0.200000 3.029424
v 1.505853 0.800000 3.029424
v 1.500000 0.200000 3.030000
v 1.500000 0.800000 3.030000
v 1.494147 0.200000 3.029424
v 1.494147 0.800000 3.029424
v 1.488519 0.200000 3.027717
v 1.488519 0.800000 3.027717
v 1.483333 0.200000 3.024944
v 1.483333 0.800000 3.024944
v 1.478787 0.200000 3.021213
v 1.478787 0.800000 3.021213
v 1.475056 0.200000 3.016667
v 1.475056 0.800000 3.016667
v 1.472284 0.200000 3.011481
v 1.472284 0.800000 3.011481
v 1.470576 0.200000 3.005853
v 1.470576 0.800000 3.005853
v 1.470000 0.200000 3.000000
v 1.470000 0.800000 3.000000
v 1.470576 0.200000 2.994147
v 1.470576 0.800000 2.994147
v 1.472284 0.200000 2.988520
v 1.472284 0.800000 2.988520
v 1.475056 0.200000 2.983333
v 1.475056 0.800000 2.983333
v 1.478787 0.200000 2.978787
v 1.478787 0.800000 2.978787
v 1.483333 0.200000 2.975056
v 1.483333 0.800000 2.975056
v 1.488520 0.200000 2.972284
v 1.488520 0.800000 2.972284
v 1.494147 0.200000 2.970577
v 1.494147 0.800000 2.970577
v 1.000000 0.200000 2.470000
v 1.000000 0.800000 2.470000
v 1.005853 0.200000 2.470577
v 1.005853 0.800000 2.470577
v 1.011480 0.200000 2.472284
v 1.011480 0.800000 2.472284
v 1.016667 0.200000 2.475056
v 1.016667 0.800000 2.475056
v 1.021213 0.200000 2.478787
v 1.021213 0.800000 2.478787
v 1.024944 0.200000 2.483333
v 1.024944 0.800000 2.483333
v 1.027716 0.200000 2.488520
v 1.027716 0.800000 2.488520
v 1.029423 0.200000 2.494148
v 1.029423 0.800000 2.494148
v 1.030000 0.200000 2.500000
v 1.030000 0.800000 2.500000
v 1.029423 0.200000 2.505853
v 1.029423 0.800000 2.505853
v 1.027716 0.200000 2.511481
v 1.027716 0.800000 2.511481
v 1.024944 0.200000 2.516667
v 1.024944 0.800000 2.516667
v 1.021213 0.200000 2.521214
v 1.021213 0.800000 2.521214
v 1.016667 0.200000 2.524944
v 1.016667 0.800000 2.524944
v 1.011480 0.200000 2.527717
v 1.011480 0.800000 2.527717
v 1.005853 0.200000 2.529424
v 1.005853 0.800000 2.529424
v 1.000000 0.200000 2.530000
v 1.000000 0.800000 2.530000
v 0.994147 0.200000 2.529424
v 0.994147 0.800000 2.529424
v 0.988519 0.200000 2.527717
v 0.988519 0.800000 2.527717
v 0.983333 0.200000 2.524944
v 0.983333 0.800000 2.524944
v 0.978787 0.200000 2.521214
v 0.978787 0.800000 2.521214
v 0.975056 0.200000 2.516667
v 0.975056 0.800000 2.516667
v 0.972284 0.200000 2.511481
v 0.972284 0.800000 2.511481
v 0.970576 0.200000 2.505853
v 0.970576 0.800000 2.505853
v 0.970000 0.200000 2.500000
v 0.970000 0.800000 2.500000
v 0.970576 0.200000 2.494148
v 0.970576 0.800000 2.494148
v 0.972284 0.200000 2.488520
v 0.972284 0.800000 2.488520
v 0.975056 0.200000 2.483333
v 0.975056 0.800000 2.483333
v 0.978787 0.200000 2.478787
v 0.978787 0.800000 2.478787
v 0.983333 0.200000 2.475056
v 0.983333 0.800000 2.475056
v 0.988519 0.200000 2.472284
v 0.988519 0.800000 2.472284
v 0.994147 0.200000 2.470577
v 0.994147 0.800000 2.470577
vn 0.0980 0.0000 -0.9952
vn 0.2903 0.0000 -0.9569
vn 0.4714 0.0000 -0.8819
vn 0.6344 0.0000 -0.7730
vn 0.7730 0.0000 -0.6344
vn 0.8819 0.0000 -0.4714
vn 0.9569 0.0000 -0.2903
vn 0.9952 0.0000 -0.0980
vn 0.9952 0.0000 0.0980
vn 0.9569 0.0000 0.2903
vn 0.8819 0.0000 0.4714
vn 0.7730 0.0000 0.6344
vn 0.6344 0.0000 0.7730
vn 0.4714 0.0000 0.8819
vn 0.2903 0.0000 0.9569
vn 0.0980 0.0000 0.9952
vn -0.0980 0.0000 0.9952
vn -0.2903 0.0000 0.9569
vn -0.4714 0.0000 0.8819
vn -0.6344 0.0000 0.7730
vn -0.7730 0.0000 0.6344
vn -0.8819 0.0000 0.4714
vn -0.9569 0.0000 0.2903
vn -0.9952 0.0000 0.0980
vn -0.9952 0.0000 -0.0980
vn -0.9569 0.0000 -0.2903
vn -0.8819 0.0000 -0.4714
vn -0.7730 0.0000 -0.6344
vn -0.6344 0.0000 -0.7730
vn -0.4714 0.0000 -0.8819
vn 0.0000 1.0000 0.0000
vn -0.2903 0.0000 -0.9569
vn -0.0980 0.0000 -0.9952
vn 0.0000 -1.0000 0.0000
vn -0.4713 0.0000 -0.8820
vn 0.9570 0.0000 0.2902
vn -0.6343 0.0000 0.7730
vn 0.0000 1.0000 -0.0001
vn 0.0000 1.0000 0.0001
vn 0.9570 0.0000 -0.2902
s off
f 2//1 3//1 1//1
f 4//2 5//2 3//2
f 6//3 7//3 5//3
f 8//4 9//4 7//4
f 10//5 11//5 9//5
f 12//6 13//6 11//6
f 14//7 15//7 13//7
f 16//8 17//8 15//8
f 18//9 19//9 17//9
f 20//10 21//10 19//10
f 22//11 23//11 21//11
f 24//12 25//12 23//12
f 26//13 27//13 25//13
f 28//14 29//14 27//14
f 30//15 31//15 29//15
f 32//16 33//16 31//16
f 34//17 35//17 33//17
f 36//18 37//18 35//18
f 38//19 39//19 37//19
f 40//20 41//20 39//20
f 42//21 43//21 41//21
f 44//22 45//22 43//22
f 46//23 47//23 45//23
f 48//24 49//24 47//24
f 50//25 51//25 49//25
f 52//26 53//26 51//26
f 54//27 55//27 53//27
f 56//28 57//28 55//28
f 58//29 59//29 57//29
f 60//30 61//30 59//30
f 54//31 38//31 22//31
f 62//32 63//32 61//32
f 64//33 1//33 63//33
f 15//34 31//34 47//34
f 66//1 67//1 65//1
f 68//2 69//2 67//2
f 70//3 71//3 69//3
f 72//4 73//4 71//4
f 74//5 75//5 73//5
f 76//6 77//6 75//6
f 78//7 79//7 77//7
f 80//8 81//8 79//8
f 82//9 83//9 81//9
f 84//10 85//10 83//10
f 86//11 87//11 85//11
f 88//12 89//12 87//12
f 90//13 91//13 89//13
f 92//14 93//14 91//14
f 94//15 95//15 93//15
f 96//16 97//16 95//16
f 98//17 99//17 97//17
f 100//18 101//18 99//18
f 102//19 103//19 101//19
f 104//20 105//20 103//20
f 106//21 107//21 105//21
f 108//22 109//22 107//22
f 110//23 111//23 109//23
f 112//24 113//24 111//24
f 114//25 115//25 113//25
f 116//26 117//26 115//26
f 118//27 119//27 117//27
f 120//28 121//28 119//28
f 122//29 123//29 121//29
f 124//35 125//35 123//35
f 94//31 86//31 70//31
f 126//32 127//32 125//32
f 128//33 65//33 127//33
f 127//34 79//34 95//34
f 130//1 131//1 129//1
f 132//2 133//2 131//2
f 134//3 135//3 133//3
f 136//4 137//4 135//4
f 138//5 139//5 137//5
f 140//6 141//6 139//6
f 142//7 143//7 141//7
f 144//8 145//8 143//8
f 146//9 147//9 145//9
f 148//10 149//10 147//10
f 150//11 151//11 149//11
f 152//12 153//12 151//12
f 154//13 155//13 153//13
f 156//14 157//14 155//14
f 158//15 159//15 157//15
f 160//16 161//16 159//16
f 162//17 163//17 161//17
f 164//18 165//18 163//18
f 166//19 167//19 165//19
f 168//20 169//20 167//20
f 170//21 171//21 169//21
f 172//22 173//22 171//22
f 174//23 175//23 173//23
f 176//24 177//24 175//24
f 178//25 179//25 177//25
f 180//26 181//26 179//26
f 182//27 183//27 181//27
f 184//28 185//28 183//28
f 186//29 187//29 185//29
f 188//35 189//35 187//35
f 166//31 150//31 134//31
f 190//32 191//32 189//32
f 192//33 129//33 191//33
f 175//34 183//34 191//34
f 194//1 195//1 193//1
f 196//2 197//2 195//2
f 198//3 199//3 197//3
f 200//4 201//4 199//4
f 202//5 203//5 201//5
f 204//6 205//6 203//6
f 206//7 207//7 205//7
f 208//8 209//8 207//8
f 210//9 211//9 209//9
f 212//36 213//36 211//36
f 214//11 215//11 213//11
f 216//12 217//12 215//12
f 218//13 219//13 217//13
f 220//14 221//14 219//14
f 222//15 223//15 221//15
f 224//16 225//16 223//16
f 226//17 227//17 225//17
f 228//18 229//18 227//18
f 230//19 231//19 229//19
f 232//37 233//37 231//37
f 234//21 235//21 233//21
f 236//22 237//22 235//22
f 238//23 239//23 237//23
f 240//24 241//24 239//24
f 242//25 243//25 241//25
f 244//26 245//26 243//26
f 246//27 247//27 245//27
f 248//28 249//28 247//28
f 250//29 251//29 249//29
f 252//30 253//30 251//30
f 222//31 214//31 198//31
f 254//32 255//32 253//32
f 256//33 193//33 255//33
f 207//34 223//34 239//34
f 2//1 4//1 3//1
f 4//2 6//2 5//2
f 6//3 8//3 7//3
f 8//4 10//4 9//4
f 10//5 12//5 11//5
f 12//6 14//6 13//6
f 14//7 16//7 15//7
f 16//8 18//8 17//8
f 18//9 20//9 19//9
f 20//10 22//10 21//10
f 22//11 24//11 23//11
f 24//12 26//12 25//12
f 26//13 28//13 27//13
f 28//14 30//14 29//14
f 30//15 32//15 31//15
f 32//16 34//16 33//16
f 34//17 36//17 35//17
f 36//18 38//18 37//18
f 38//19 40//19 39//19
f 40//20 42//20 41//20
f 42//21 44//21 43//21
f 44//22 46//22 45//22
f 46//23 48//23 47//23
f 48//24 50//24 49//24
f 50//25 52//25 51//25
f 52//26 54//26 53//26
f 54//27 56//27 55//27
f 56//28 58//28 57//28
f 58//29 60//29 59//29
f 60//30 62//30 61//30
f 6//31 4//31 2//31
f 2//38 64//38 6//38
f 64//31 62//31 6//31
f 62//31 60//31 58//31
f 58//38 56//38 54//38
f 54//31 52//31 50//31
f 50//31 48//31 54//31
f 48//31 46//31 54//31
f 46//31 44//31 38//31
f 44//31 42//31 38//31
f 42//31 40//31 38//31
f 38//39 36//39 34//39
f 34//31 32//31 30//31
f 30//31 28//31 26//31
f 26//39 24//39 22//39
f 22//31 20//31 18//31
f 18//31 16//31 22//31
f 16//31 14//31 22//31
f 14//38 12//38 10//38
f 10//31 8//31 6//31
f 62//31 58//31 6//31
f 58//31 54//31 6//31
f 38//31 34//31 22//31
f 34//31 30//31 22//31
f 30//31 26//31 22//31
f 14//31 10//31 22//31
f 10//31 6//31 22//31
f 54//31 46//31 38//31
f 6//31 54//31 22//31
f 62//32 64//32 63//32
f 64//33 2//33 1//33
f 63//34 1//34 3//34
f 3//34 5//34 7//34
f 7//34 9//34 11//34
f 11//34 13//34 7//34
f 13//34 15//34 7//34
f 15//34 17//34 19//34
f 19//34 21//34 15//34
f 21//34 23//34 15//34
f 23//34 25//34 31//34
f 25//34 27//34 31//34
f 27//34 29//34 31//34
f 31//34 33//34 35//34
f 35//34 37//34 39//34
f 39//34 41//34 43//34
f 43//34 45//34 47//34
f 47//34 49//34 51//34
f 51//34 53//34 55//34
f 55//34 57//34 63//34
f 57//34 59//34 63//34
f 59//34 61//34 63//34
f 63//34 3//34 7//34
f 31//34 35//34 47//34
f 35//34 39//34 47//34
f 39//34 43//34 47//34
f 47//34 51//34 63//34
f 51//34 55//34 63//34
f 63//34 7//34 15//34
f 15//34 23//34 31//34
f 63//34 15//34 47//34
f 66//1 68//1 67//1
f 68//2 70//2 69//2
f 70//3 72//3 71//3
f 72//4 74//4 73//4
f 74//5 76//5 75//5
f 76//6 78//6 77//6
f 78//7 80//7 79//7
f 80//8 82//8 81//8
f 82//9 84//9 83//9
f 84//10 86//10 85//10
f 86//11 88//11 87//11
f 88//12 90//12 89//12
f 90//13 92//13 91//13
f 92//14 94//14 93//14
f 94//15 96//15 95//15
f 96//16 98//16 97//16
f 98//17 100//17 99//17
f 100//18 102//18 101//18
f 102//19 104//19 103//19
f 104//20 106//20 105//20
f 106//21 108//21 107//21
f 108//22 110//22 109//22
f 110//23 112//23 111//23
f 112//24 114//24 113//24
f 114//25 116//25 115//25
f 116//26 118//26 117//26
f 118//27 120//27 119//27
f 120//28 122//28 121//28
f 122//29 124//29 123//29
f 124//30 126//30 125//30
f 70//31 68//31 66//31
f 66//38 128//38 70//38
f 128//31 126//31 70//31
f 126//39 124//39 122//39
f 122//31 120//31 126//31
f 120//31 118//31 126//31
f 118//31 116//31 114//31
f 114//31 112//31 110//31
f 110//31 108//31 106//31
f 106//31 104//31 110//31
f 104//31 102//31 110//31
f 102//39 100//39 98//39
f 98//31 96//31 94//31
f 94//31 92//31 90//31
f 90//39 88//39 94//39
f 88//31 86//31 94//31
f 86//31 84//31 78//31
f 84//31 82//31 78//31
f 82//31 80//31 78//31
f 78//38 76//38 74//38
f 74//31 72//31 70//31
f 118//31 114//31 110//31
f 102//31 98//31 94//31
f 78//31 74//31 86//31
f 74//31 70//31 86//31
f 70//31 126//31 118//31
f 118//31 110//31 70//31
f 110//31 102//31 70//31
f 102//31 94//31 70//31
f 126//32 128//32 127//32
f 128//33 66//33 65//33
f 127//34 65//34 67//34
f 67//34 69//34 127//34
f 69//34 71//34 127//34
f 71//34 73//34 79//34
f 73//34 75//34 79//34
f 75//34 77//34 79//34
f 79//34 81//34 83//34
f 83//34 85//34 87//34
f 87//34 89//34 91//34
f 91//34 93//34 87//34
f 93//34 95//34 87//34
f 95//34 97//34 103//34
f 97//34 99//34 103//34
f 99//34 101//34 103//34
f 103//34 105//34 107//34
f 107//34 109//34 103//34
f 109//34 111//34 103//34
f 111//34 113//34 119//34
f 113//34 115//34 119//34
f 115//34 117//34 119//34
f 119//34 121//34 123//34
f 123//34 125//34 119//34
f 125//34 127//34 119//34
f 79//34 83//34 95//34
f 83//34 87//34 95//34
f 127//34 71//34 79//34
f 95//34 103//34 111//34
f 111//34 119//34 95//34
f 119//34 127//34 95//34
f 130//1 132//1 131//1
f 132//2 134//2 133//2
f 134//3 136//3 135//3
f 136//4 138//4 137//4
f 138//5 140//5 139//5
f 140//6 142//6 141//6
f 142//7 144//7 143//7
f 144//8 146//8 145//8
f 146//9 148//9 147//9
f 148//10 150//10 149//10
f 150//11 152//11 151//11
f 152//12 154//12 153//12
f 154//13 156//13 155//13
f 156//14 158//14 157//14
f 158//15 160//15 159//15
f 160//16 162//16 161//16
f 162//17 164//17 163//17
f 164//18 166//18 165//18
f 166//19 168//19 167//19
f 168//20 170//20 169//20
f 170//21 172//21 171//21
f 172//22 174//22 173//22
f 174//23 176//23 175//23
f 176//24 178//24 177//24
f 178//25 180//25 179//25
f 180//26 182//26 181//26
f 182//27 184//27 183//27
f 184//28 186//28 185//28
f 186//29 188//29 187//29
f 188//30 190//30 189//30
f 134//31 132//31 130//31
f 130//38 192//38 134//38
f 192//31 190//31 134//31
f 190//31 188//31 186//31
f 186//38 184//38 190//38
f 184//31 182//31 190//31
f 182//31 180//31 174//31
f 180//31 178//31 174//31
f 178//31 176//31 174//31
f 174//39 172//39 170//39
f 170//31 168//31 166//31
f 166//39 164//39 162//39
f 162//31 160//31 158//31
f 158//31 156//31 154//31
f 154//39 152//39 158//39
f 152//31 150//31 158//31
f 150//31 148//31 142//31
f 148//31 146//31 142//31
f 146//31 144//31 142//31
f 142//38 140//38 138//38
f 138//39 136//39 142//39
f 136//31 134//31 142//31
f 174//31 170//31 182//31
f 170//31 166//31 182//31
f 166//31 162//31 150//31
f 162//31 158//31 150//31
f 134//31 190//31 166//31
f 190//31 182//31 166//31
f 150//31 142//31 134//31
f 190//32 192//32 191//32
f 192//33 130//33 129//33
f 191//34 129//34 131//34
f 131//34 133//34 135//34
f 135//34 137//34 139//34
f 139//34 141//34 135//34
f 141//34 143//34 135//34
f 143//34 145//34 147//34
f 147//34 149//34 151//34
f 151//34 153//34 155//34
f 155//34 157//34 151//34
f 157//34 159//34 151//34
f 159//34 161//34 167//34
f 161//34 163//34 167//34
f 163//34 165//34 167//34
f 167//34 169//34 171//34
f 171//34 173//34 175//34
f 175//34 177//34 183//34
f 177//34 179//34 183//34
f 179//34 181//34 183//34
f 183//34 185//34 187//34
f 187//34 189//34 183//34
f 189//34 191//34 183//34
f 191//34 131//34 135//34
f 143//34 147//34 159//34
f 147//34 151//34 159//34
f 167//34 171//34 175//34
f 191//34 135//34 159//34
f 135//34 143//34 159//34
f 159//34 167//34 191//34
f 167//34 175//34 191//34
f 194//1 196//1 195//1
f 196//2 198//2 197//2
f 198//3 200//3 199//3
f 200//4 202//4 201//4
f 202//5 204//5 203//5
f 204//6 206//6 205//6
f 206//40 208//40 207//40
f 208//8 210//8 209//8
f 210//9 212//9 211//9
f 212//10 214//10 213//10
f 214//11 216//11 215//11
f 216//12 218//12 217//12
f 218//13 220//13 219//13
f 220//14 222//14 221//14
f 222//15 224//15 223//15
f 224//16 226//16 225//16
f 226//17 228//17 227//17
f 228//18 230//18 229//18
f 230//19 232//19 231//19
f 232//20 234//20 233//20
f 234//21 236//21 235//21
f 236//22 238//22 237//22
f 238//23 240//23 239//23
f 240//24 242//24 241//24
f 242//25 244//25 243//25
f 244//26 246//26 245//26
f 246//27 248//27 247//27
f 248//28 250//28 249//28
f 250//29 252//29 251//29
f 252//30 254//30 253//30
f 198//31 196//31 194//31
f 194//38 256//38 198//38
f 256//31 254//31 198//31
f 254//39 252//39 250//39
f 250//38 248//38 246//38
f 246//31 244//31 242//31
f 242//31 240//31 238//31
f 238//31 236//31 234//31
f 234//31 232//31 238//31
f 232//31 230//31 238//31
f 230//39 228//39 226//39
f 226//38 224//38 230//38
f 224//31 222//31 230//31
f 222//31 220//31 218//31
f 218//39 216//39 214//39
f 214//31 212//31 210//31
f 210//31 208//31 206//31
f 206//38 204//38 202//38
f 202//31 200//31 198//31
f 254//31 250//31 198//31
f 250//31 246//31 198//31
f 246//31 242//31 238//31
f 222//31 218//31 214//31
f 214//31 210//31 206//31
f 206//31 202//31 214//31
f 202//31 198//31 214//31
f 246//31 238//31 198//31
f 238//31 230//31 198//31
f 230//31 222//31 198//31
f 254//32 256//32 255//32
f 256//33 194//33 193//33
f 255//34 193//34 195//34
f 195//34 197//34 255//34
f 197//34 199//34 255//34
f 199//34 201//34 203//34
f 203//34 205//34 207//34
f 207//34 209//34 215//34
f 209//34 211//34 215//34
f 211//34 213//34 215//34
f 215//34 217//34 223//34
f 217//34 219//34 223//34
f 219//34 221//34 223//34
f 223//34 225//34 231//34
f 225//34 227//34 231//34
f 227//34 229//34 231//34
f 231//34 233//34 235//34
f 235//34 237//34 231//34
f 237//34 239//34 231//34
f 239//34 241//34 247//34
f 241//34 243//34 247//34
f 243//34 245//34 247//34
f 247//34 249//34 251//34
f 251//34 253//34 255//34
f 199//34 203//34 255//34
f 203//34 207//34 255//34
f 247//34 251//34 239//34
f 251//34 255//34 239//34
f 207//34 215//34 223//34
f 223//34 231//34 239//34
f 255//34 207//34 239//34
