# Blender v2.79 (sub 0) OBJ File: 'sofa.blend'
# www.blender.org
v 0.930000 0.770000 3.070000
v 0.930000 0.776000 3.150000
v 0.850000 0.776000 3.070000
v 0.930000 0.771757 3.126569
v 0.883812 0.772536 3.116188
v 0.873431 0.776000 3.126569
v 0.873431 0.771757 3.070000
v 0.930000 0.824000 3.150000
v 0.930000 0.830000 3.070000
v 0.850000 0.824000 3.070000
v 0.930000 0.828243 3.126569
v 0.883812 0.827464 3.116188
v 0.873431 0.828243 3.070000
v 0.873431 0.824000 3.126569
v 0.930000 0.770000 2.430000
v 0.850000 0.776000 2.430000
v 0.930000 0.776000 2.350000
v 0.873431 0.771757 2.430000
v 0.883812 0.772536 2.383812
v 0.873431 0.776000 2.373431
v 0.930000 0.771757 2.373431
v 0.930000 0.830000 2.430000
v 0.930000 0.824000 2.350000
v 0.850000 0.824000 2.430000
v 0.930000 0.828243 2.373431
v 0.883812 0.827464 2.383812
v 0.873431 0.824000 2.373431
v 0.873431 0.828243 2.430000
v 1.570000 0.770000 3.070000
v 1.650000 0.776000 3.070000
v 1.570000 0.776000 3.150000
v 1.626569 0.771757 3.070000
v 1.616188 0.772536 3.116188
v 1.626569 0.776000 3.126569
v 1.570000 0.771757 3.126569
v 1.570000 0.830000 3.070000
v 1.570000 0.824000 3.150000
v 1.650000 0.824000 3.070000
v 1.570000 0.828243 3.126569
v 1.616188 0.827464 3.116188
v 1.626569 0.824000 3.126569
v 1.626569 0.828243 3.070000
v 1.570000 0.770000 2.430000
v 1.570000 0.776000 2.350000
v 1.650000 0.776000 2.430000
v 1.570000 0.771757 2.373431
v 1.616188 0.772536 2.383812
v 1.626569 0.776000 2.373431
v 1.626569 0.771757 2.430000
v 1.570000 0.830000 2.430000
v 1.650000 0.824000 2.430000
v 1.570000 0.824000 2.350000
v 1.626569 0.828243 2.430000
v 1.616188 0.827464 2.383812
v 1.626569 0.824000 2.373431
v 1.570000 0.828243 2.373431
v 1.470000 0.200000 2.530000
v 1.470000 0.800000 2.530000
v 1.470000 0.200000 2.470000
v 1.470000 0.800000 2.470000
v 1.530000 0.200000 2.530000
v 1.530000 0.800000 2.530000
v 1.530000 0.200000 2.470000
v 1.530000 0.800000 2.470000
v 0.970000 0.200000 2.530000
v 0.970000 0.800000 2.530000
v 0.970000 0.200000 2.470000
v 0.970000 0.800000 2.470000
v 1.030000 0.200000 2.530000
v 1.030000 0.800000 2.530000
v 1.030000 0.200000 2.470000
v 1.030000 0.800000 2.470000
v 0.970000 0.200000 3.030000
v 0.970000 0.800000 3.030000
v 0.970000 0.200000 2.970000
v 0.970000 0.800000 2.970000
v 1.030000 0.200000 3.030000
v 1.030000 0.800000 3.030000
v 1.030000 0.200000 2.970000
v 1.030000 0.800000 2.970000
v 1.470000 0.200000 3.030000
v 1.470000 0.800000 3.030000
v 1.470000 0.200000 2.970000
v 1.470000 0.800000 2.970000
v 1.530000 0.200000 3.030000
v 1.530000 0.800000 3.030000
v 1.530000 0.200000 2.970000
v 1.530000 0.800000 2.970000
v 1.680000 0.770000 2.320000
v 1.680000 0.776000 2.400000
v 1.600000 0.776000 2.320000
v 1.680000 0.771757 2.376569
v 1.633812 0.772536 2.366188
v 1.623431 0.776000 2.376569
v 1.623431 0.771757 2.320000
v 1.680000 0.824000 2.400000
v 1.680000 0.830000 2.320000
v 1.600000 0.824000 2.320000
v 1.680000 0.828243 2.376569
v 1.633812 0.827464 2.366188
v 1.623431 0.828243 2.320000
v 1.623431 0.824000 2.376569
v 1.680000 0.770000 1.680000
v 1.600000 0.776000 1.680000
v 1.680000 0.776000 1.600000
v 1.623431 0.771757 1.680000
v 1.633812 0.772536 1.633812
v 1.623431 0.776000 1.623432
v 1.680000 0.771757 1.623432
v 1.680000 0.830000 1.680000
v 1.680000 0.824000 1.600000
v 1.600000 0.824000 1.680000
v 1.680000 0.828243 1.623432
v 1.633812 0.827464 1.633812
v 1.623431 0.824000 1.623432
v 1.623431 0.828243 1.680000
v 2.320000 0.770000 2.320000
v 2.400000 0.776000 2.320000
v 2.320000 0.776000 2.400000
v 2.376569 0.771757 2.320000
v 2.366188 0.772536 2.366188
v 2.376569 0.776000 2.376569
v 2.320000 0.771757 2.376569
v 2.320000 0.830000 2.320000
v 2.320000 0.824000 2.400000
v 2.400000 0.824000 2.320000
v 2.320000 0.828243 2.376569
v 2.366188 0.827464 2.366188
v 2.376569 0.824000 2.376569
v 2.376569 0.828243 2.320000
v 2.320000 0.770000 1.680000
v 2.320000 0.776000 1.600000
v 2.400000 0.776000 1.680000
v 2.320000 0.771757 1.623432
v 2.366188 0.772536 1.633812
v 2.376569 0.776000 1.623432
v 2.376569 0.771757 1.680000
v 2.320000 0.830000 1.680000
v 2.400000 0.824000 1.680000
v 2.320000 0.824000 1.600000
v 2.376569 0.828243 1.680000
v 2.366188 0.827464 1.633812
v 2.376569 0.824000 1.623432
v 2.320000 0.828243 1.623432
v 2.220000 0.200000 1.780000
v 2.220000 0.800000 1.780000
v 2.220000 0.200000 1.720000
v 2.220000 0.800000 1.720000
v 2.280000 0.200000 1.780000
v 2.280000 0.800000 1.780000
v 2.280000 0.200000 1.720000
v 2.280000 0.800000 1.720000
v 1.720000 0.200000 1.780000
v 1.720000 0.800000 1.780000
v 1.720000 0.200000 1.720000
v 1.720000 0.800000 1.720000
v 1.780000 0.200000 1.780000
v 1.780000 0.800000 1.780000
v 1.780000 0.200000 1.720000
v 1.780000 0.800000 1.720000
v 1.720000 0.200000 2.280000
v 1.720000 0.800000 2.280000
v 1.720000 0.200000 2.220000
v 1.720000 0.800000 2.220000
v 1.780000 0.200000 2.280000
v 1.780000 0.800000 2.280000
v 1.780000 0.200000 2.220000
v 1.780000 0.800000 2.220000
v 2.220000 0.200000 2.280000
v 2.220000 0.800000 2.280000
v 2.220000 0.200000 2.220000
v 2.220000 0.800000 2.220000
v 2.280000 0.200000 2.280000
v 2.280000 0.800000 2.280000
v 2.280000 0.200000 2.220000
v 2.280000 0.800000 2.220000
vn 0.0000 0.0000 1.0000
vn 1.0000 0.0000 0.0000
vn 0.0000 1.0000 0.0000
vn -1.0000 0.0000 0.0000
vn 0.0000 0.0000 -1.0000
vn -0.0310 -0.9992 0.0238
vn -0.0565 -0.9824 0.1779
vn -0.2286 -0.9689 0.0947
vn -0.0947 0.9689 0.2286
vn -0.0238 0.9992 0.0310
vn -0.1779 0.9824 0.0565
vn -0.0238 -0.9992 -0.0310
vn -0.1779 -0.9824 -0.0565
vn -0.0947 -0.9689 -0.2286
vn -0.0310 0.9992 -0.0238
vn -0.0565 0.9824 -0.1779
vn -0.2286 0.9689 -0.0947
vn 0.0238 -0.9992 0.0310
vn 0.1779 -0.9824 0.0565
vn 0.0947 -0.9689 0.2286
vn 0.0310 0.9992 0.0238
vn 0.0565 0.9824 0.1779
vn 0.2286 0.9689 0.0947
vn 0.0310 -0.9992 -0.0238
vn 0.0565 -0.9824 -0.1779
vn 0.2286 -0.9689 -0.0947
vn 0.0238 0.9992 -0.0310
vn 0.1779 0.9824 -0.0565
vn 0.0947 0.9689 -0.2286
vn -0.0311 -0.9995 0.0000
vn -0.1782 -0.9840 0.0000
vn -0.3827 0.0000 0.9239
vn -0.9239 0.0000 0.3827
vn -0.0311 0.9995 0.0000
vn -0.1782 0.9840 0.0000
vn -0.3827 0.0000 -0.9239
vn -0.9239 0.0000 -0.3827
vn 0.0000 -0.9995 -0.0310
vn 0.0000 -0.9840 -0.1782
vn 0.0000 0.9995 -0.0310
vn 0.0000 0.9840 -0.1782
vn 0.9239 0.0000 -0.3827
vn 0.3827 0.0000 -0.9239
vn 0.0311 -0.9995 0.0000
vn 0.1782 -0.9840 0.0000
vn 0.0311 0.9995 0.0000
vn 0.1782 0.9840 0.0000
vn 0.3827 0.0000 0.9239
vn 0.9239 0.0000 0.3827
vn 0.0000 -0.9995 0.0310
vn 0.0000 -0.9840 0.1782
vn 0.0000 0.9995 0.0310
vn 0.0000 0.9840 0.1782
vn 0.0000 -1.0000 0.0000
vn 0.0000 -0.9995 -0.0311
vn 0.0000 0.9995 -0.0311
vn 0.0000 -0.9995 0.0311
vn 0.0000 0.9995 0.0311
vn -0.0238 -0.9992 0.0310
vn -0.0947 -0.9689 0.2286
vn -0.1779 -0.9824 0.0565
vn -0.0565 0.9824 0.1779
vn -0.0310 0.9992 0.0238
vn -0.2286 0.9689 0.0947
vn -0.0310 -0.9992 -0.0238
vn -0.2286 -0.9689 -0.0947
vn -0.0565 -0.9824 -0.1779
vn -0.0238 0.9992 -0.0310
vn -0.0947 0.9689 -0.2286
vn -0.1779 0.9824 -0.0565
vn 0.0310 -0.9992 0.0238
vn 0.2286 -0.9689 0.0947
vn 0.0565 -0.9824 0.1779
vn 0.0238 0.9992 0.0310
vn 0.0947 0.9689 0.2286
vn 0.1779 0.9824 0.0565
vn 0.0238 -0.9992 -0.0310
vn 0.0947 -0.9689 -0.2286
vn 0.1779 -0.9824 -0.0565
vn 0.0310 0.9992 -0.0238
vn 0.2286 0.9689 -0.0947
vn 0.0565 0.9824 -0.1779
s off
f 37//1 2//1 31//1
f 51//2 30//2 45//2
f 22//3 36//3 50//3
f 10//4 16//4 3//4
f 23//5 44//5 17//5
f 1//6 5//6 7//6
f 2//7 5//7 4//7
f 3//8 5//8 6//8
f 8//9 12//9 14//9
f 9//10 12//10 11//10
f 10//11 12//11 13//11
f 15//12 19//12 21//12
f 16//13 19//13 18//13
f 17//14 19//14 20//14
f 22//15 26//15 28//15
f 23//16 26//16 25//16
f 24//17 26//17 27//17
f 29//18 33//18 35//18
f 30//19 33//19 32//19
f 31//20 33//20 34//20
f 36//21 40//21 42//21
f 37//22 40//22 39//22
f 38//23 40//23 41//23
f 43//24 47//24 49//24
f 44//25 47//25 46//25
f 45//26 47//26 48//26
f 50//27 54//27 56//27
f 51//28 54//28 53//28
f 52//29 54//29 55//29
f 1//30 18//30 15//30
f 7//31 16//31 18//31
f 8//32 6//32 2//32
f 14//33 3//33 6//33
f 22//34 13//34 9//34
f 28//35 10//35 13//35
f 17//36 27//36 23//36
f 20//37 24//37 27//37
f 15//38 46//38 43//38
f 21//39 44//39 46//39
f 50//40 25//40 22//40
f 56//41 23//41 25//41
f 45//42 55//42 51//42
f 48//43 52//43 55//43
f 43//44 32//44 29//44
f 49//45 30//45 32//45
f 36//46 53//46 50//46
f 42//47 51//47 53//47
f 31//48 41//48 37//48
f 34//49 38//49 41//49
f 29//50 4//50 1//50
f 35//51 2//51 4//51
f 9//52 39//52 36//52
f 11//53 37//53 39//53
f 43//54 1//54 15//54
f 58//4 59//4 57//4
f 60//5 63//5 59//5
f 64//2 61//2 63//2
f 62//1 57//1 61//1
f 63//54 57//54 59//54
f 60//3 62//3 64//3
f 66//4 67//4 65//4
f 68//5 71//5 67//5
f 72//2 69//2 71//2
f 70//1 65//1 69//1
f 71//54 65//54 67//54
f 68//3 70//3 72//3
f 74//4 75//4 73//4
f 76//5 79//5 75//5
f 80//2 77//2 79//2
f 78//1 73//1 77//1
f 79//54 73//54 75//54
f 76//3 78//3 80//3
f 82//4 83//4 81//4
f 84//5 87//5 83//5
f 88//2 85//2 87//2
f 86//1 81//1 85//1
f 87//54 81//54 83//54
f 84//3 86//3 88//3
f 125//1 90//1 119//1
f 139//2 118//2 133//2
f 110//3 124//3 138//3
f 98//4 104//4 91//4
f 111//5 132//5 105//5
f 89//6 93//6 95//6
f 90//7 93//7 92//7
f 91//8 93//8 94//8
f 96//9 100//9 102//9
f 97//10 100//10 99//10
f 98//11 100//11 101//11
f 103//12 107//12 109//12
f 104//13 107//13 106//13
f 105//14 107//14 108//14
f 110//15 114//15 116//15
f 111//16 114//16 113//16
f 112//17 114//17 115//17
f 117//18 121//18 123//18
f 118//19 121//19 120//19
f 119//20 121//20 122//20
f 124//21 128//21 130//21
f 125//22 128//22 127//22
f 126//23 128//23 129//23
f 131//24 135//24 137//24
f 132//25 135//25 134//25
f 133//26 135//26 136//26
f 138//27 142//27 144//27
f 139//28 142//28 141//28
f 140//29 142//29 143//29
f 89//30 106//30 103//30
f 95//31 104//31 106//31
f 96//32 94//32 90//32
f 102//33 91//33 94//33
f 110//34 101//34 97//34
f 116//35 98//35 101//35
f 105//36 115//36 111//36
f 115//37 104//37 112//37
f 103//55 134//55 131//55
f 109//39 132//39 134//39
f 138//56 113//56 110//56
f 144//41 111//41 113//41
f 133//42 143//42 139//42
f 136//43 140//43 143//43
f 131//44 120//44 117//44
f 137//45 118//45 120//45
f 124//46 141//46 138//46
f 130//47 139//47 141//47
f 119//48 129//48 125//48
f 122//49 126//49 129//49
f 117//57 92//57 89//57
f 123//51 90//51 92//51
f 97//58 127//58 124//58
f 99//53 125//53 127//53
f 131//54 89//54 103//54
f 146//4 147//4 145//4
f 148//5 151//5 147//5
f 152//2 149//2 151//2
f 150//1 145//1 149//1
f 151//54 145//54 147//54
f 148//3 150//3 152//3
f 154//4 155//4 153//4
f 156//5 159//5 155//5
f 160//2 157//2 159//2
f 158//1 153//1 157//1
f 159//54 153//54 155//54
f 156//3 158//3 160//3
f 162//4 163//4 161//4
f 164//5 167//5 163//5
f 168//2 165//2 167//2
f 166//1 161//1 165//1
f 167//54 161//54 163//54
f 164//3 166//3 168//3
f 170//4 171//4 169//4
f 172//5 175//5 171//5
f 176//2 173//2 175//2
f 174//1 169//1 173//1
f 175//54 169//54 171//54
f 172//3 174//3 176//3
f 37//1 8//1 2//1
f 51//2 38//2 30//2
f 22//3 9//3 36//3
f 10//4 24//4 16//4
f 23//5 52//5 44//5
f 1//59 4//59 5//59
f 2//60 6//60 5//60
f 3//61 7//61 5//61
f 8//62 11//62 12//62
f 9//63 13//63 12//63
f 10//64 14//64 12//64
f 15//65 18//65 19//65
f 16//66 20//66 19//66
f 17//67 21//67 19//67
f 22//68 25//68 26//68
f 23//69 27//69 26//69
f 24//70 28//70 26//70
f 29//71 32//71 33//71
f 30//72 34//72 33//72
f 31//73 35//73 33//73
f 36//74 39//74 40//74
f 37//75 41//75 40//75
f 38//76 42//76 40//76
f 43//77 46//77 47//77
f 44//78 48//78 47//78
f 45//79 49//79 47//79
f 50//80 53//80 54//80
f 51//81 55//81 54//81
f 52//82 56//82 54//82
f 1//30 7//30 18//30
f 7//31 3//31 16//31
f 8//32 14//32 6//32
f 14//33 10//33 3//33
f 22//34 28//34 13//34
f 28//35 24//35 10//35
f 17//36 20//36 27//36
f 20//37 16//37 24//37
f 15//55 21//55 46//55
f 21//39 17//39 44//39
f 50//40 56//40 25//40
f 56//41 52//41 23//41
f 45//42 48//42 55//42
f 48//43 44//43 52//43
f 43//44 49//44 32//44
f 49//45 45//45 30//45
f 36//46 42//46 53//46
f 42//47 38//47 51//47
f 31//48 34//48 41//48
f 34//49 30//49 38//49
f 29//57 35//57 4//57
f 35//51 31//51 2//51
f 9//58 11//58 39//58
f 11//53 8//53 37//53
f 43//54 29//54 1//54
f 58//4 60//4 59//4
f 60//5 64//5 63//5
f 64//2 62//2 61//2
f 62//1 58//1 57//1
f 63//54 61//54 57//54
f 60//3 58//3 62//3
f 66//4 68//4 67//4
f 68//5 72//5 71//5
f 72//2 70//2 69//2
f 70//1 66//1 65//1
f 71//54 69//54 65//54
f 68//3 66//3 70//3
f 74//4 76//4 75//4
f 76//5 80//5 79//5
f 80//2 78//2 77//2
f 78//1 74//1 73//1
f 79//54 77//54 73//54
f 76//3 74//3 78//3
f 82//4 84//4 83//4
f 84//5 88//5 87//5
f 88//2 86//2 85//2
f 86//1 82//1 81//1
f 87//54 85//54 81//54
f 84//3 82//3 86//3
f 125//1 96//1 90//1
f 139//2 126//2 118//2
f 110//3 97//3 124//3
f 98//4 112//4 104//4
f 111//5 140//5 132//5
f 89//59 92//59 93//59
f 90//60 94//60 93//60
f 91//61 95//61 93//61
f 96//62 99//62 100//62
f 97//63 101//63 100//63
f 98//64 102//64 100//64
f 103//65 106//65 107//65
f 104//66 108//66 107//66
f 105//67 109//67 107//67
f 110//68 113//68 114//68
f 111//69 115//69 114//69
f 112//70 116//70 114//70
f 117//71 120//71 121//71
f 118//72 122//72 121//72
f 119//73 123//73 121//73
f 124//74 127//74 128//74
f 125//75 129//75 128//75
f 126//76 130//76 128//76
f 131//77 134//77 135//77
f 132//78 136//78 135//78
f 133//79 137//79 135//79
f 138//80 141//80 142//80
f 139//81 143//81 142//81
f 140//82 144//82 142//82
f 89//30 95//30 106//30
f 95//31 91//31 104//31
f 96//32 102//32 94//32
f 102//33 98//33 91//33
f 110//34 116//34 101//34
f 116//35 112//35 98//35
f 105//36 108//36 115//36
f 115//37 108//37 104//37
f 103//55 109//55 134//55
f 109//39 105//39 132//39
f 138//40 144//40 113//40
f 144//41 140//41 111//41
f 133//42 136//42 143//42
f 136//43 132//43 140//43
f 131//44 137//44 120//44
f 137//45 133//45 118//45
f 124//46 130//46 141//46
f 130//47 126//47 139//47
f 119//48 122//48 129//48
f 122//49 118//49 126//49
f 117//57 123//57 92//57
f 123//51 119//51 90//51
f 97//52 99//52 127//52
f 99//53 96//53 125//53
f 131//54 117//54 89//54
f 146//4 148//4 147//4
f 148//5 152//5 151//5
f 152//2 150//2 149//2
f 150//1 146//1 145//1
f 151//54 149//54 145//54
f 148//3 146//3 150//3
f 154//4 156//4 155//4
f 156//5 160//5 159//5
f 160//2 158//2 157//2
f 158//1 154//1 153//1
f 159//54 157//54 153//54
f 156//3 154//3 158//3
f 162//4 164//4 163//4
f 164//5 168//5 167//5
f 168//2 166//2 165//2
f 166//1 162//1 161//1
f 167//54 165//54 161//54
f 164//3 162//3 166//3
f 170//4 172//4 171//4
f 172//5 176//5 175//5
f 176//2 174//2 173//2
f 174//1 170//1 169//1
f 175//54 173//54 169//54
f 172//3 170//3 174//3
