# Blender v2.79 (sub 0) OBJ File: ''
# www.blender.org
v -4.856000 4.766777 4.016883
v -4.856000 5.766777 4.016883
v -4.856000 4.766777 3.016883
v -4.856000 5.766777 3.016883
v -4.854000 4.766777 4.016883
v -4.854000 5.766777 4.016883
v -4.854000 4.766777 3.016883
v -4.854000 5.766777 3.016883
v -4.856000 4.765565 -0.202097
v -4.856000 5.365566 -0.202097
v -4.856000 4.765565 -0.802098
v -4.856000 5.365566 -0.802098
v -4.854000 4.765565 -0.202097
v -4.854000 5.365566 -0.202097
v -4.854000 4.765565 -0.802098
v -4.854000 5.365566 -0.802098
vn -1.0000 0.0000 0.0000
vn 0.0000 0.0000 -1.0000
vn 1.0000 0.0000 0.0000
vn 0.0000 0.0000 1.0000
vn 0.0000 -1.0000 0.0000
vn 0.0000 1.0000 0.0000
s off
f 2//1 3//1 1//1
f 4//2 7//2 3//2
f 8//3 5//3 7//3
f 6//4 1//4 5//4
f 7//5 1//5 3//5
f 4//6 6//6 8//6
f 10//1 11//1 9//1
f 12//2 15//2 11//2
f 16//3 13//3 15//3
f 14//4 9//4 13//4
f 15//5 9//5 11//5
f 12//6 14//6 16//6
f 2//1 4//1 3//1
f 4//2 8//2 7//2
f 8//3 6//3 5//3
f 6//4 2//4 1//4
f 7//5 5//5 1//5
f 4//6 2//6 6//6
f 10//1 12//1 11//1
f 12//2 16//2 15//2
f 16//3 14//3 13//3
f 14//4 10//4 9//4
f 15//5 13//5 9//5
f 12//6 10//6 14//6
