# Blender v2.79 (sub 0) OBJ File: ''
# www.blender.org
v -2.058215 0.934406 0.280453
v -2.084918 0.963383 0.296176
v -2.077365 0.958207 0.261303
v -2.069541 0.938277 0.290312
v -2.065769 0.935692 0.272898
v -2.076338 0.939562 0.282619
v -2.088905 0.960799 0.286521
v -2.079343 0.948914 0.296084
v -2.083238 0.947050 0.286682
v -2.072799 0.944429 0.265869
v -2.086133 0.958899 0.273720
v -2.081286 0.945713 0.277670
v -2.128841 1.195206 0.252253
v -2.113118 1.224183 0.225549
v -2.121288 1.190029 0.217379
v -2.128749 1.209675 0.246677
v -2.132828 1.192621 0.242598
v -2.132412 1.206588 0.237508
v -2.119206 1.217727 0.219462
v -2.122978 1.220312 0.236876
v -2.128349 1.214076 0.230607
v -2.130056 1.190721 0.229797
v -2.122205 1.205191 0.216463
v -2.130461 1.205250 0.228496
v -1.888509 0.934406 0.110748
v -1.907660 0.958207 0.091597
v -1.872786 0.963383 0.084044
v -1.896064 0.935692 0.103193
v -1.878650 0.938277 0.099421
v -1.886343 0.939562 0.092625
v -1.895242 0.958899 0.082829
v -1.903093 0.944429 0.096163
v -1.891292 0.945713 0.087676
v -1.872879 0.948914 0.089620
v -1.882441 0.960799 0.080057
v -1.882280 0.947051 0.085724
v -1.943413 1.224183 0.055844
v -1.916709 1.195206 0.040121
v -1.951583 1.190029 0.047674
v -1.932087 1.220312 0.045985
v -1.949500 1.217727 0.049756
v -1.938355 1.214076 0.040613
v -1.926364 1.192621 0.036134
v -1.922285 1.209675 0.040213
v -1.931454 1.206588 0.036550
v -1.952499 1.205191 0.046757
v -1.939165 1.190721 0.038906
v -1.940466 1.205250 0.038502
v -1.948933 0.975817 0.389735
v -1.940763 1.009971 0.397905
v -1.975636 1.004794 0.405458
v -1.942845 0.982273 0.395823
v -1.960259 0.979688 0.399594
v -1.953990 0.985924 0.404966
v -1.953180 1.009279 0.406673
v -1.939846 0.994809 0.398822
v -1.951879 0.994750 0.407077
v -1.970061 0.990325 0.405366
v -1.965981 1.007379 0.409445
v -1.960891 0.993412 0.409029
v -2.003836 1.265594 0.334831
v -2.019559 1.236617 0.361535
v -1.984686 1.241793 0.353982
v -2.013696 1.261723 0.346158
v -1.996282 1.264308 0.342386
v -2.006002 1.260438 0.352954
v -2.009904 1.239201 0.365522
v -2.019467 1.251086 0.355959
v -2.010066 1.252950 0.359855
v -1.989252 1.255571 0.349415
v -1.997103 1.241102 0.362750
v -2.001053 1.254287 0.357903
v -1.779227 0.975817 0.220030
v -1.763504 1.004794 0.193326
v -1.771057 1.009971 0.228199
v -1.769368 0.979688 0.208703
v -1.773139 0.982273 0.226117
v -1.763996 0.985924 0.214972
v -1.759517 1.007379 0.202981
v -1.763597 0.990325 0.198902
v -1.759933 0.993412 0.208071
v -1.770141 0.994809 0.229116
v -1.762289 1.009279 0.215782
v -1.761885 0.994750 0.217083
v -1.834131 1.265594 0.165126
v -1.814980 1.241793 0.184276
v -1.807427 1.236617 0.149403
v -1.826576 1.264308 0.172680
v -1.822805 1.261723 0.155267
v -1.816008 1.260438 0.162960
v -1.806212 1.241102 0.171859
v -1.819547 1.255571 0.179710
v -1.811059 1.254287 0.167909
v -1.813003 1.251086 0.149495
v -1.803440 1.239201 0.159058
v -1.809107 1.252950 0.158897
vn -0.7071 0.0000 0.7071
vn 0.6830 0.2588 0.6830
vn -0.1830 0.9659 -0.1830
vn -0.6830 -0.2588 -0.6830
vn 0.7071 0.0000 -0.7071
vn -0.2524 -0.9636 0.0884
vn -0.5682 -0.7298 0.3801
vn -0.8397 -0.3263 0.4341
vn -0.9146 -0.3786 -0.1419
vn -0.7529 -0.4180 -0.5083
vn -0.5817 -0.7399 -0.3379
vn -0.7512 -0.6569 -0.0652
vn -0.9279 0.1392 0.3459
vn -0.8137 0.5655 0.1346
vn -0.5821 0.7764 -0.2413
vn -0.7817 0.3157 -0.5379
vn -0.8162 -0.0839 -0.5716
vn -0.9777 -0.0456 -0.2050
vn -0.9287 0.2802 -0.2427
vn 0.0884 -0.9636 -0.2524
vn -0.3379 -0.7399 -0.5817
vn -0.5083 -0.4180 -0.7529
vn -0.1419 -0.3787 -0.9146
vn 0.4341 -0.3263 -0.8397
vn 0.3801 -0.7298 -0.5682
vn -0.0652 -0.6569 -0.7512
vn -0.2413 0.7765 -0.5821
vn 0.1346 0.5655 -0.8137
vn 0.3459 0.1392 -0.9279
vn -0.2050 -0.0456 -0.9777
vn -0.5716 -0.0839 -0.8162
vn -0.5379 0.3156 -0.7817
vn -0.2427 0.2802 -0.9287
vn 0.2413 -0.7765 0.5821
vn 0.5379 -0.3156 0.7817
vn 0.5716 0.0839 0.8162
vn 0.2050 0.0456 0.9777
vn -0.3459 -0.1392 0.9279
vn -0.1346 -0.5656 0.8136
vn 0.2427 -0.2802 0.9287
vn -0.0883 0.9636 0.2524
vn -0.3801 0.7299 0.5682
vn -0.4341 0.3263 0.8397
vn 0.1419 0.3787 0.9146
vn 0.5083 0.4180 0.7529
vn 0.3379 0.7399 0.5817
vn 0.0652 0.6569 0.7512
vn 0.5821 -0.7765 0.2413
vn 0.8137 -0.5655 -0.1346
vn 0.9279 -0.1392 -0.3459
vn 0.9777 0.0456 0.2050
vn 0.8162 0.0839 0.5716
vn 0.7817 -0.3156 0.5379
vn 0.9287 -0.2802 0.2427
vn 0.2525 0.9636 -0.0884
vn 0.5817 0.7399 0.3379
vn 0.7529 0.4180 0.5083
vn 0.9146 0.3787 0.1419
vn 0.8397 0.3264 -0.4341
vn 0.5682 0.7299 -0.3801
vn 0.7512 0.6569 0.0652
vn -0.0845 -0.9928 -0.0845
vn -0.4668 -0.7512 -0.4668
vn -0.6403 -0.4244 -0.6403
vn -0.9106 -0.0964 0.4018
vn -0.9605 -0.2154 -0.1761
vn -0.7966 -0.2548 -0.5482
vn -0.4242 0.8001 -0.4242
vn -0.6698 0.3205 -0.6698
vn -0.7045 -0.0852 -0.7045
vn 0.4018 -0.0964 -0.9106
vn -0.1761 -0.2154 -0.9605
vn -0.5482 -0.2548 -0.7966
vn 0.3596 -0.9331 -0.0060
vn 0.6294 -0.6830 -0.3706
vn 0.7304 -0.2497 -0.6358
vn 0.0060 0.9331 -0.3595
vn 0.3706 0.6830 -0.6294
vn 0.6358 0.2496 -0.7304
vn 0.7966 0.2548 0.5482
vn 0.9605 0.2153 0.1761
vn 0.9106 0.0964 -0.4018
vn 0.4242 -0.8000 0.4242
vn 0.6698 -0.3204 0.6698
vn 0.7045 0.0852 0.7045
vn 0.0845 0.9928 0.0845
vn 0.4668 0.7512 0.4668
vn 0.6403 0.4244 0.6403
vn -0.4019 0.0964 0.9106
vn 0.1761 0.2153 0.9605
vn 0.5482 0.2548 0.7966
vn -0.0060 -0.9331 0.3595
vn -0.3706 -0.6830 0.6294
vn -0.6358 -0.2497 0.7304
vn -0.3596 0.9331 0.0060
vn -0.6294 0.6830 0.3706
vn -0.7304 0.2496 0.6358
vn 0.1830 -0.9659 0.1830
vn -0.2747 -0.9580 0.0827
vn -0.8421 -0.3422 0.4168
vn -0.9146 -0.3787 -0.1419
vn -0.7556 -0.4266 -0.4970
vn -0.9346 0.1460 0.3243
vn -0.6005 0.7617 -0.2431
vn -0.7817 0.3156 -0.5379
vn -0.8225 -0.0734 -0.5640
vn 0.0827 -0.9580 -0.2747
vn -0.4970 -0.4266 -0.7556
vn 0.4168 -0.3422 -0.8421
vn -0.2431 0.7617 -0.6005
vn 0.1346 0.5656 -0.8136
vn 0.3243 0.1460 -0.9346
vn -0.5640 -0.0734 -0.8225
vn 0.2431 -0.7617 0.6005
vn 0.5379 -0.3157 0.7817
vn 0.5640 0.0734 0.8225
vn -0.3243 -0.1460 0.9346
vn -0.1346 -0.5655 0.8137
vn -0.0827 0.9580 0.2747
vn -0.3801 0.7298 0.5682
vn -0.4168 0.3422 0.8421
vn 0.4970 0.4266 0.7556
vn 0.6006 -0.7617 0.2431
vn 0.9346 -0.1460 -0.3243
vn 0.8225 0.0734 0.5640
vn 0.7817 -0.3157 0.5379
vn 0.2747 0.9580 -0.0827
vn 0.7556 0.4266 0.4970
vn 0.8421 0.3422 -0.4168
vn -0.9106 -0.0964 0.4019
vn -0.9605 -0.2153 -0.1761
vn -0.4242 0.8000 -0.4242
vn -0.1761 -0.2153 -0.9605
vn 0.3595 -0.9331 -0.0060
vn 0.7304 -0.2496 -0.6358
vn 0.0060 0.9331 -0.3596
vn 0.6358 0.2497 -0.7304
vn 0.9605 0.2154 0.1761
vn 0.9106 0.0964 -0.4019
vn 0.4668 0.7511 0.4668
vn -0.4018 0.0964 0.9106
vn 0.1761 0.2154 0.9605
vn -0.6358 -0.2496 0.7304
vn -0.3595 0.9331 0.0059
s off
f 62//1 2//1 51//1
f 86//2 50//2 75//2
f 37//3 61//3 85//3
f 15//4 26//4 3//4
f 38//5 74//5 27//5
f 4//6 5//6 1//6
f 4//7 9//7 6//7
f 7//8 8//8 2//8
f 7//9 12//9 9//9
f 10//10 11//10 3//10
f 10//11 6//11 12//11
f 6//12 9//12 12//12
f 16//13 17//13 13//13
f 16//14 21//14 18//14
f 19//15 20//15 14//15
f 19//16 24//16 21//16
f 22//17 23//17 15//17
f 22//18 18//18 24//18
f 18//19 21//19 24//19
f 28//20 29//20 25//20
f 28//21 33//21 30//21
f 31//22 32//22 26//22
f 31//23 36//23 33//23
f 34//24 35//24 27//24
f 34//25 30//25 36//25
f 30//26 33//26 36//26
f 40//27 41//27 37//27
f 40//28 45//28 42//28
f 43//29 44//29 38//29
f 43//30 48//30 45//30
f 46//31 47//31 39//31
f 46//32 42//32 48//32
f 42//33 45//33 48//33
f 52//34 53//34 49//34
f 52//35 57//35 54//35
f 55//36 56//36 50//36
f 55//37 60//37 57//37
f 58//38 59//38 51//38
f 58//39 54//39 60//39
f 54//40 57//40 60//40
f 64//41 65//41 61//41
f 64//42 69//42 66//42
f 67//43 68//43 62//43
f 67//44 72//44 69//44
f 70//45 71//45 63//45
f 70//46 66//46 72//46
f 66//47 69//47 72//47
f 76//48 77//48 73//48
f 76//49 81//49 78//49
f 79//50 80//50 74//50
f 79//51 84//51 81//51
f 82//52 83//52 75//52
f 82//53 78//53 84//53
f 78//54 81//54 84//54
f 88//55 89//55 85//55
f 88//56 93//56 90//56
f 91//57 92//57 86//57
f 91//58 96//58 93//58
f 94//59 95//59 87//59
f 94//60 90//60 96//60
f 90//61 93//61 96//61
f 1//62 28//62 25//62
f 5//63 32//63 28//63
f 10//64 26//64 32//64
f 13//65 7//65 2//65
f 17//66 11//66 7//66
f 22//67 3//67 11//67
f 37//68 19//68 14//68
f 41//69 23//69 19//69
f 46//70 15//70 23//70
f 27//71 43//71 38//71
f 35//72 47//72 43//72
f 31//73 39//73 47//73
f 25//74 76//74 73//74
f 29//75 80//75 76//75
f 34//76 74//76 80//76
f 85//77 40//77 37//77
f 89//78 44//78 40//78
f 94//79 38//79 44//79
f 75//80 91//80 86//80
f 83//81 95//81 91//81
f 79//82 87//82 95//82
f 73//83 52//83 49//83
f 77//84 56//84 52//84
f 82//85 50//85 56//85
f 61//86 88//86 85//86
f 65//87 92//87 88//87
f 70//88 86//88 92//88
f 51//89 67//89 62//89
f 59//90 71//90 67//90
f 55//91 63//91 71//91
f 49//92 4//92 1//92
f 53//93 8//93 4//93
f 58//94 2//94 8//94
f 14//95 64//95 61//95
f 20//96 68//96 64//96
f 16//97 62//97 68//97
f 73//98 1//98 25//98
f 62//1 13//1 2//1
f 86//2 63//2 50//2
f 37//3 14//3 61//3
f 15//4 39//4 26//4
f 38//5 87//5 74//5
f 4//99 6//99 5//99
f 4//7 8//7 9//7
f 7//100 9//100 8//100
f 7//101 11//101 12//101
f 10//102 12//102 11//102
f 10//11 5//11 6//11
f 16//103 18//103 17//103
f 16//14 20//14 21//14
f 19//104 21//104 20//104
f 19//105 23//105 24//105
f 22//106 24//106 23//106
f 22//18 17//18 18//18
f 28//107 30//107 29//107
f 28//21 32//21 33//21
f 31//108 33//108 32//108
f 31//23 35//23 36//23
f 34//109 36//109 35//109
f 34//25 29//25 30//25
f 40//110 42//110 41//110
f 40//111 44//111 45//111
f 43//112 45//112 44//112
f 43//30 47//30 48//30
f 46//113 48//113 47//113
f 46//32 41//32 42//32
f 52//114 54//114 53//114
f 52//115 56//115 57//115
f 55//116 57//116 56//116
f 55//37 59//37 60//37
f 58//117 60//117 59//117
f 58//118 53//118 54//118
f 64//119 66//119 65//119
f 64//120 68//120 69//120
f 67//121 69//121 68//121
f 67//44 71//44 72//44
f 70//122 72//122 71//122
f 70//46 65//46 66//46
f 76//123 78//123 77//123
f 76//49 80//49 81//49
f 79//124 81//124 80//124
f 79//51 83//51 84//51
f 82//125 84//125 83//125
f 82//126 77//126 78//126
f 88//127 90//127 89//127
f 88//56 92//56 93//56
f 91//128 93//128 92//128
f 91//58 95//58 96//58
f 94//129 96//129 95//129
f 94//60 89//60 90//60
f 1//62 5//62 28//62
f 5//63 10//63 32//63
f 10//64 3//64 26//64
f 13//130 17//130 7//130
f 17//131 22//131 11//131
f 22//67 15//67 3//67
f 37//132 41//132 19//132
f 41//69 46//69 23//69
f 46//70 39//70 15//70
f 27//71 35//71 43//71
f 35//133 31//133 47//133
f 31//73 26//73 39//73
f 25//134 29//134 76//134
f 29//75 34//75 80//75
f 34//135 27//135 74//135
f 85//136 89//136 40//136
f 89//78 94//78 44//78
f 94//137 87//137 38//137
f 75//80 83//80 91//80
f 83//138 79//138 95//138
f 79//139 74//139 87//139
f 73//83 77//83 52//83
f 77//84 82//84 56//84
f 82//85 75//85 50//85
f 61//86 65//86 88//86
f 65//140 70//140 92//140
f 70//88 63//88 86//88
f 51//141 59//141 67//141
f 59//142 55//142 71//142
f 55//91 50//91 63//91
f 49//92 53//92 4//92
f 53//93 58//93 8//93
f 58//143 51//143 2//143
f 14//144 20//144 64//144
f 20//96 16//96 68//96
f 16//97 13//97 62//97
f 73//98 49//98 1//98
